<svg xmlns="http://www.w3.org/2000/svg" viewBox="0 0 1600 900" role="img" aria-labelledby="title desc">
  <title id="title">Evening city scene</title>
  <desc id="desc">A city skyline glowing softly beneath a violet-orange dusk sky.</desc>
  <defs>
    <linearGradient id="sky" x1="0" x2="0" y1="0" y2="1">
      <stop offset="0%" stop-color="#14284a"/>
      <stop offset="40%" stop-color="#53406f"/>
      <stop offset="76%" stop-color="#d1775f"/>
      <stop offset="100%" stop-color="#f5c489"/>
    </linearGradient>
  </defs>
  <rect width="1600" height="900" fill="url(#sky)"/>
  <circle cx="1244" cy="228" r="62" fill="#ffd9aa" opacity="0.88"/>
  <g fill="#fff5e6" opacity="0.85">
    <circle cx="214" cy="116" r="1.8"/>
    <circle cx="372" cy="92" r="1.8"/>
    <circle cx="498" cy="142" r="1.4"/>
    <circle cx="836" cy="102" r="1.8"/>
    <circle cx="1024" cy="148" r="1.8"/>
    <circle cx="1406" cy="126" r="1.8"/>
  </g>
  <rect y="662" width="1600" height="238" fill="#201e2c"/>
  <g fill="#29374d">
    <rect x="78" y="394" width="104" height="268" rx="5"/>
    <rect x="206" y="326" width="148" height="336" rx="5"/>
    <rect x="384" y="438" width="86" height="224" rx="5"/>
    <rect x="500" y="282" width="162" height="380" rx="5"/>
    <rect x="694" y="358" width="132" height="304" rx="5"/>
    <rect x="856" y="302" width="104" height="360" rx="5"/>
    <rect x="986" y="402" width="144" height="260" rx="5"/>
    <rect x="1160" y="224" width="190" height="438" rx="5"/>
    <rect x="1380" y="384" width="118" height="278" rx="5"/>
  </g>
  <g fill="#f9d48f">
    <rect x="104" y="426" width="18" height="22"/>
    <rect x="134" y="426" width="18" height="22"/>
    <rect x="244" y="356" width="24" height="26"/>
    <rect x="278" y="356" width="24" height="26"/>
    <rect x="538" y="320" width="26" height="28"/>
    <rect x="576" y="320" width="26" height="28"/>
    <rect x="732" y="396" width="22" height="24"/>
    <rect x="892" y="336" width="20" height="22"/>
    <rect x="1206" y="266" width="30" height="32"/>
    <rect x="1250" y="266" width="30" height="32"/>
    <rect x="1294" y="266" width="30" height="32"/>
  </g>
  <path d="M0 736c123-12 194-30 323-24 129 7 193 36 316 35 122-2 179-34 301-37 121-3 205 17 328 33 122 16 221 17 332-7v164H0Z" fill="#312739"/>
</svg>
