<svg xmlns="http://www.w3.org/2000/svg" viewBox="0 0 1600 900" role="img" aria-labelledby="title desc">
  <title id="title">Morning coast scene</title>
  <desc id="desc">A bright seaside morning with gentle waves and distant cliffs.</desc>
  <defs>
    <linearGradient id="sky" x1="0" x2="0" y1="0" y2="1">
      <stop offset="0%" stop-color="#8bd6ff"/>
      <stop offset="55%" stop-color="#d7f0ff"/>
      <stop offset="100%" stop-color="#fff6e2"/>
    </linearGradient>
    <linearGradient id="sea" x1="0" x2="0" y1="0" y2="1">
      <stop offset="0%" stop-color="#62bfd5"/>
      <stop offset="100%" stop-color="#1f6d83"/>
    </linearGradient>
    <linearGradient id="sand" x1="0" x2="1" y1="0" y2="1">
      <stop offset="0%" stop-color="#f8e0a6"/>
      <stop offset="100%" stop-color="#efc989"/>
    </linearGradient>
  </defs>
  <rect width="1600" height="900" fill="url(#sky)"/>
  <circle cx="260" cy="160" r="84" fill="#fff1a7"/>
  <g fill="#ffffff" opacity="0.7">
    <ellipse cx="1080" cy="150" rx="140" ry="42"/>
    <ellipse cx="1188" cy="166" rx="92" ry="28"/>
    <ellipse cx="532" cy="124" rx="92" ry="34"/>
  </g>
  <rect y="360" width="1600" height="540" fill="url(#sea)"/>
  <path d="M0 394c148 18 214 18 325 0 110-18 184-18 330 0 146 19 206 20 356 0 148-20 244-20 388 0 145 20 201 20 201 20v59H0Z" fill="#bdf1ff" opacity="0.3"/>
  <path d="M0 486c114 17 208 17 326 0 120-18 230-18 371 0 141 18 210 18 349 0 138-18 240-18 365 0 126 18 189 18 189 18v49H0Z" fill="#dff9ff" opacity="0.22"/>
  <path d="M0 700c149-24 260-79 369-95 108-15 232 4 361 48 129 44 215 69 356 62 141-7 251-56 514-40v225H0Z" fill="url(#sand)"/>
  <path d="M1175 308c58-88 101-142 173-158 72-17 128 10 252 7v286c-51-8-139-18-238-29-98-11-176-38-187-106Z" fill="#6b8a7a" opacity="0.75"/>
  <path d="M1338 340c53-66 94-100 150-106 56-6 73 15 112 23v160c-82-18-135-22-211-77Z" fill="#89aa93" opacity="0.72"/>
  <path d="M123 680c61-34 114-24 163 8 49 31 60 85 115 114-73 14-151-7-238-33 3-28 1-60-40-89Z" fill="#7ea480" opacity="0.55"/>
</svg>
